<mxfile host="app.diagrams.net" agent="Mozilla/5.0 (Windows NT 10.0; Win64; x64) AppleWebKit/537.36 (KHTML, like Gecko) Chrome/128.0.0.0 Safari/537.36" version="24.7.8">
  <diagram name="Страница — 1" id="kN_KFiqZcTjBzFzMzs-E">
    <mxGraphModel dx="1232" dy="1097" grid="1" gridSize="10" guides="1" tooltips="1" connect="1" arrows="1" fold="1" page="1" pageScale="1" pageWidth="827" pageHeight="1169" math="0" shadow="0">
      <root>
        <mxCell id="0" />
        <mxCell id="1" parent="0" />
        <mxCell id="-FH_IpNK9eZxnnbRwVDz-16" style="edgeStyle=orthogonalEdgeStyle;rounded=0;orthogonalLoop=1;jettySize=auto;html=1;exitX=0.5;exitY=1;exitDx=0;exitDy=0;entryX=0.5;entryY=0;entryDx=0;entryDy=0;curved=1;fontSize=14;" edge="1" parent="1" source="-FH_IpNK9eZxnnbRwVDz-1" target="-FH_IpNK9eZxnnbRwVDz-2">
          <mxGeometry relative="1" as="geometry" />
        </mxCell>
        <mxCell id="-FH_IpNK9eZxnnbRwVDz-17" style="edgeStyle=orthogonalEdgeStyle;rounded=0;orthogonalLoop=1;jettySize=auto;html=1;exitX=0.5;exitY=1;exitDx=0;exitDy=0;curved=1;fontSize=14;" edge="1" parent="1" source="-FH_IpNK9eZxnnbRwVDz-1" target="-FH_IpNK9eZxnnbRwVDz-3">
          <mxGeometry relative="1" as="geometry" />
        </mxCell>
        <mxCell id="-FH_IpNK9eZxnnbRwVDz-1" value="lzma_lzma_encode()" style="rounded=1;whiteSpace=wrap;html=1;fillColor=#cce5ff;strokeColor=#36393d;fontSize=14;" vertex="1" parent="1">
          <mxGeometry x="300" y="60" width="150" height="50" as="geometry" />
        </mxCell>
        <mxCell id="-FH_IpNK9eZxnnbRwVDz-18" style="edgeStyle=orthogonalEdgeStyle;rounded=0;orthogonalLoop=1;jettySize=auto;html=1;exitX=0.5;exitY=1;exitDx=0;exitDy=0;curved=1;fontSize=14;" edge="1" parent="1" source="-FH_IpNK9eZxnnbRwVDz-2" target="-FH_IpNK9eZxnnbRwVDz-14">
          <mxGeometry relative="1" as="geometry" />
        </mxCell>
        <mxCell id="-FH_IpNK9eZxnnbRwVDz-19" style="edgeStyle=orthogonalEdgeStyle;rounded=0;orthogonalLoop=1;jettySize=auto;html=1;exitX=0.5;exitY=1;exitDx=0;exitDy=0;curved=1;fontSize=14;" edge="1" parent="1" source="-FH_IpNK9eZxnnbRwVDz-2" target="-FH_IpNK9eZxnnbRwVDz-13">
          <mxGeometry relative="1" as="geometry">
            <Array as="points">
              <mxPoint x="470" y="210" />
              <mxPoint x="470" y="300" />
              <mxPoint x="375" y="300" />
            </Array>
          </mxGeometry>
        </mxCell>
        <mxCell id="-FH_IpNK9eZxnnbRwVDz-2" value="lzma_lzma_optimum_normal()" style="rounded=1;whiteSpace=wrap;html=1;fillColor=#cce5ff;strokeColor=#36393d;fontSize=14;" vertex="1" parent="1">
          <mxGeometry x="400" y="160" width="200" height="50" as="geometry" />
        </mxCell>
        <mxCell id="-FH_IpNK9eZxnnbRwVDz-20" style="edgeStyle=orthogonalEdgeStyle;rounded=0;orthogonalLoop=1;jettySize=auto;html=1;exitX=0.5;exitY=1;exitDx=0;exitDy=0;curved=1;fontSize=14;" edge="1" parent="1" source="-FH_IpNK9eZxnnbRwVDz-3" target="-FH_IpNK9eZxnnbRwVDz-13">
          <mxGeometry relative="1" as="geometry" />
        </mxCell>
        <mxCell id="-FH_IpNK9eZxnnbRwVDz-3" value="lzma_lzma_optimum_fast()" style="rounded=1;whiteSpace=wrap;html=1;fillColor=#cce5ff;strokeColor=#36393d;fontSize=14;" vertex="1" parent="1">
          <mxGeometry x="170" y="160" width="200" height="50" as="geometry" />
        </mxCell>
        <mxCell id="-FH_IpNK9eZxnnbRwVDz-28" style="edgeStyle=orthogonalEdgeStyle;rounded=0;orthogonalLoop=1;jettySize=auto;html=1;exitX=0.5;exitY=1;exitDx=0;exitDy=0;entryX=0.5;entryY=0;entryDx=0;entryDy=0;curved=1;dashed=1;fontSize=14;" edge="1" parent="1" source="-FH_IpNK9eZxnnbRwVDz-13" target="-FH_IpNK9eZxnnbRwVDz-22">
          <mxGeometry relative="1" as="geometry" />
        </mxCell>
        <mxCell id="-FH_IpNK9eZxnnbRwVDz-13" value="lzma_mf_find()" style="rounded=1;whiteSpace=wrap;html=1;fillColor=#cce5ff;strokeColor=#36393d;fontSize=14;" vertex="1" parent="1">
          <mxGeometry x="300" y="390" width="150" height="50" as="geometry" />
        </mxCell>
        <mxCell id="-FH_IpNK9eZxnnbRwVDz-21" style="edgeStyle=orthogonalEdgeStyle;rounded=0;orthogonalLoop=1;jettySize=auto;html=1;exitX=0.5;exitY=1;exitDx=0;exitDy=0;curved=1;fontSize=14;" edge="1" parent="1" source="-FH_IpNK9eZxnnbRwVDz-14" target="-FH_IpNK9eZxnnbRwVDz-13">
          <mxGeometry relative="1" as="geometry" />
        </mxCell>
        <mxCell id="-FH_IpNK9eZxnnbRwVDz-14" value="helper1()" style="rounded=1;whiteSpace=wrap;html=1;fillColor=#cce5ff;strokeColor=#36393d;fontSize=14;" vertex="1" parent="1">
          <mxGeometry x="490" y="270" width="150" height="50" as="geometry" />
        </mxCell>
        <mxCell id="-FH_IpNK9eZxnnbRwVDz-22" value="" style="rounded=1;whiteSpace=wrap;html=1;fillColor=#cce5ff;strokeColor=#36393d;fontSize=14;" vertex="1" parent="1">
          <mxGeometry x="240" y="535" width="150" height="50" as="geometry" />
        </mxCell>
        <mxCell id="-FH_IpNK9eZxnnbRwVDz-23" value="" style="rounded=1;whiteSpace=wrap;html=1;fillColor=#cce5ff;strokeColor=#36393d;fontSize=14;" vertex="1" parent="1">
          <mxGeometry x="250" y="545" width="150" height="50" as="geometry" />
        </mxCell>
        <mxCell id="-FH_IpNK9eZxnnbRwVDz-24" value="" style="rounded=1;whiteSpace=wrap;html=1;fillColor=#cce5ff;strokeColor=#36393d;fontSize=14;" vertex="1" parent="1">
          <mxGeometry x="260" y="555" width="150" height="50" as="geometry" />
        </mxCell>
        <mxCell id="-FH_IpNK9eZxnnbRwVDz-25" value="" style="rounded=1;whiteSpace=wrap;html=1;fillColor=#cce5ff;strokeColor=#36393d;fontSize=14;" vertex="1" parent="1">
          <mxGeometry x="270" y="565" width="150" height="50" as="geometry" />
        </mxCell>
        <mxCell id="-FH_IpNK9eZxnnbRwVDz-26" value="" style="rounded=1;whiteSpace=wrap;html=1;fillColor=#cce5ff;strokeColor=#36393d;fontSize=14;" vertex="1" parent="1">
          <mxGeometry x="280" y="575" width="150" height="50" as="geometry" />
        </mxCell>
        <mxCell id="-FH_IpNK9eZxnnbRwVDz-27" value="lzma_mf_bt4_find()" style="rounded=1;whiteSpace=wrap;html=1;fillColor=#cce5ff;strokeColor=#36393d;fontSize=14;" vertex="1" parent="1">
          <mxGeometry x="290" y="585" width="150" height="50" as="geometry" />
        </mxCell>
        <mxCell id="-FH_IpNK9eZxnnbRwVDz-29" style="edgeStyle=orthogonalEdgeStyle;rounded=0;orthogonalLoop=1;jettySize=auto;html=1;exitX=0.5;exitY=1;exitDx=0;exitDy=0;entryX=0.5;entryY=0;entryDx=0;entryDy=0;curved=1;dashed=1;fontSize=14;" edge="1" parent="1" source="-FH_IpNK9eZxnnbRwVDz-13" target="-FH_IpNK9eZxnnbRwVDz-27">
          <mxGeometry relative="1" as="geometry" />
        </mxCell>
        <mxCell id="-FH_IpNK9eZxnnbRwVDz-30" style="edgeStyle=orthogonalEdgeStyle;rounded=0;orthogonalLoop=1;jettySize=auto;html=1;exitX=0.5;exitY=1;exitDx=0;exitDy=0;entryX=0.5;entryY=0;entryDx=0;entryDy=0;curved=1;dashed=1;fontSize=14;" edge="1" parent="1" source="-FH_IpNK9eZxnnbRwVDz-13" target="-FH_IpNK9eZxnnbRwVDz-23">
          <mxGeometry relative="1" as="geometry" />
        </mxCell>
        <mxCell id="-FH_IpNK9eZxnnbRwVDz-32" style="edgeStyle=orthogonalEdgeStyle;rounded=0;orthogonalLoop=1;jettySize=auto;html=1;exitX=0.5;exitY=1;exitDx=0;exitDy=0;entryX=0.5;entryY=0;entryDx=0;entryDy=0;dashed=1;curved=1;fontSize=14;" edge="1" parent="1" source="-FH_IpNK9eZxnnbRwVDz-13" target="-FH_IpNK9eZxnnbRwVDz-24">
          <mxGeometry relative="1" as="geometry" />
        </mxCell>
        <mxCell id="-FH_IpNK9eZxnnbRwVDz-33" style="edgeStyle=orthogonalEdgeStyle;rounded=0;orthogonalLoop=1;jettySize=auto;html=1;exitX=0.5;exitY=1;exitDx=0;exitDy=0;entryX=0.5;entryY=0;entryDx=0;entryDy=0;curved=1;dashed=1;fontSize=14;" edge="1" parent="1" source="-FH_IpNK9eZxnnbRwVDz-13" target="-FH_IpNK9eZxnnbRwVDz-25">
          <mxGeometry relative="1" as="geometry" />
        </mxCell>
        <mxCell id="-FH_IpNK9eZxnnbRwVDz-35" style="edgeStyle=orthogonalEdgeStyle;rounded=0;orthogonalLoop=1;jettySize=auto;html=1;exitX=0.5;exitY=1;exitDx=0;exitDy=0;entryX=0.5;entryY=0;entryDx=0;entryDy=0;dashed=1;curved=1;fontSize=14;" edge="1" parent="1" source="-FH_IpNK9eZxnnbRwVDz-13" target="-FH_IpNK9eZxnnbRwVDz-26">
          <mxGeometry relative="1" as="geometry" />
        </mxCell>
        <mxCell id="-FH_IpNK9eZxnnbRwVDz-36" value="Косвенный переход" style="text;html=1;align=center;verticalAlign=middle;whiteSpace=wrap;rounded=0;fontSize=14;" vertex="1" parent="1">
          <mxGeometry x="390" y="470" width="60" height="30" as="geometry" />
        </mxCell>
      </root>
    </mxGraphModel>
  </diagram>
</mxfile>
